<svg width="476" height="357" viewBox="0 0 476 357" fill="none" xmlns="http://www.w3.org/2000/svg">
<path fill-rule="evenodd" clip-rule="evenodd" d="M242.611 150.997C259.98 149.616 276.55 156.088 290.433 166.176C308.324 179.178 323.489 197.773 333.754 217.367C334.846 218.208 335.921 219.07 336.989 219.94C342.702 224.594 348.284 229.51 353.231 234.981C355.993 238.035 363.238 245.461 360.093 250.146C359.425 251.14 358.329 251.711 357.231 252.105C354.153 253.207 350.944 253.765 347.908 255.055C344.161 256.646 340.275 258.874 337.874 262.272C337.191 263.238 337.013 264.379 336.095 264.804C335.121 265.256 333.286 265.08 332.222 265.184C330.083 265.394 327.944 265.604 325.805 265.813C320.779 266.306 315.526 266.36 310.61 267.574L287.994 273.158C283.368 274.3 278.052 274.93 273.665 276.807C267.119 279.608 260.874 283.71 254.61 287.09C251.582 288.725 248.553 290.36 245.524 291.994C244.045 292.793 243.032 292.803 241.299 292.937L228.79 293.899C226.772 294.054 225.803 294.867 225.539 292.847L222.631 270.647L221.095 258.908C221.003 258.21 221.03 254.752 220.458 254.334C220.099 254.073 217.993 254.636 217.604 254.684L211.926 255.379C207.837 255.88 203.748 256.38 199.659 256.881C199.327 256.922 197.488 256.901 197.282 257.172C197.04 257.491 197.5 259.316 197.541 259.708C197.975 263.831 198.409 267.953 198.843 272.075C198.894 272.553 199.474 274.77 199.168 275.162C198.956 275.434 197.415 275.467 197.102 275.519C193.158 276.162 189.213 276.806 185.269 277.45C182.444 277.912 178.752 277.888 176.081 278.95C174.548 279.56 173.031 281.12 171.706 282.095L152.468 296.251C149.55 298.398 145.617 297.851 142.064 298.122L101.076 301.244C101.11 299.968 101.144 298.691 101.178 297.415C101.358 290.653 101.538 283.892 101.719 277.131L101.955 268.288C101.97 267.728 101.746 266.091 102.112 265.677C102.598 265.128 104.771 264.89 105.446 264.69C107.708 264.02 109.97 263.351 112.232 262.681C118.869 260.717 125.504 258.753 132.14 256.789C138.699 254.847 145.257 252.906 151.816 250.965C154.06 250.3 156.304 249.636 158.548 248.972C159.066 248.818 160.876 248.614 161.237 248.176C161.691 247.624 161.488 245.267 161.56 244.567C161.916 241.151 162.424 237.75 163.042 234.372C167.501 210.006 177.922 185.256 197.245 169.001C210.018 158.256 226.041 152.315 242.611 150.997ZM245.674 199.86C243.955 197.841 241.066 194.547 238.028 195.094C235.56 195.538 234.214 198.599 233.354 200.634C229.895 208.811 228.822 218.185 227.747 226.924C227.072 232.408 226.529 237.916 226.181 243.43C238.503 242.483 250.824 241.535 263.145 240.587C262.563 236.661 262.097 232.699 261.397 228.792C261.046 226.833 260.075 225.07 259.246 223.261C255.534 215.169 251.483 206.68 245.674 199.86Z" fill="#54777D"/>
<path fill-rule="evenodd" clip-rule="evenodd" d="M416.711 40.4419L417.012 40.4471C425.189 40.6646 432.399 45.9262 437.992 51.4945C440.757 54.2478 443.279 57.4863 444.466 61.2548C445.836 65.6081 445.385 70.3964 444.343 74.7655C442.039 84.4208 439.224 94.1258 436.059 103.536C434.501 108.165 432.242 112.703 431.067 117.441C430.098 121.344 434.179 124.187 434.335 128.198C434.493 132.245 431.77 136.046 428.029 137.492C426.436 138.108 424.508 137.594 423.039 138.225C421.696 138.802 421.225 140.505 420.967 141.812C420.616 143.594 420.679 145.376 420.779 147.174C420.84 148.274 420.566 150.07 421.103 151.051C421.471 151.725 422.143 151.946 422.722 152.407C423.512 153.036 424.038 153.82 424.73 154.543C425.872 155.737 426.971 156.383 427.281 158.125C427.446 157.729 427.611 157.333 427.775 156.938C428.626 158.495 429.257 159.242 428.448 160.719C430.958 160.473 432.446 165.027 433.104 166.755C434.31 169.916 435.137 173.2 436.346 176.363C438.001 180.7 440.177 184.979 441.233 189.516C442.121 193.33 442.823 197.247 443.612 201.087C444.056 203.249 444.444 205.445 445.257 207.507C445.573 208.307 446.159 208.846 446.523 209.559C447.02 210.536 446.825 211.052 446.849 212.122C446.891 214.029 448.094 215.266 448.472 217.119C448.876 219.098 449.206 221.099 449.614 223.082C450.435 227.076 451.957 231.065 452.323 235.111C452.749 239.809 453.661 244.45 454.12 249.149C454.521 253.256 453.839 257.664 454.697 261.637C455.457 265.163 454.514 268.387 454.179 271.888C454.094 272.776 455.463 278.068 453.263 277.052C453.676 278.3 454.255 278.894 454.286 280.263C454.315 281.543 453.985 282.859 453.715 284.1C453.195 286.499 452.848 289.113 451.828 291.36C450.675 293.902 448.917 294.206 446.528 295.078C444.91 295.669 441.998 297.775 440.723 295.522C439.963 297.835 438.479 296.236 436.816 296.107C436.827 296.107 435.864 296.463 435.684 296.488C435.099 296.567 434.408 296.291 433.826 296.243C432.375 296.122 430.952 296.316 429.532 296.61C426.262 297.288 423.098 298.225 419.78 298.697C413.298 299.619 406.945 299.183 400.454 299.587C387.749 300.377 374.835 299.714 362.121 299.372C360.756 299.335 359.286 299.526 357.939 299.317C356.487 299.09 356.171 298.403 355.04 297.715C353.159 296.573 351.073 297.684 349.123 298.102C343.396 299.327 337.415 299.418 331.643 300.604C319.915 303.012 309.109 307.765 297.875 311.774C293.005 313.513 287.289 316.327 282.037 316.449C275.672 316.587 277.176 310.318 278.345 306.288C274.668 307.265 268.893 311.725 265.155 309.136C260.701 306.052 266.368 300.924 266.635 297.298C258.674 298.95 249.643 302.575 241.562 299.629C240.007 299.062 238.654 297.864 236.985 297.669C235.249 297.466 233.415 298.079 231.661 298.069C227.664 298.043 223.783 297.511 219.788 298.003C210.88 299.101 202.099 299.701 193.119 299.938C184.079 300.176 175.038 300.711 165.993 300.689C161.403 300.677 156.727 300.133 152.145 300.377C150.346 300.473 146.475 301.779 145.211 299.951C143.942 301.473 142.864 300.456 141.236 300.625C141.537 300.594 140.388 301.258 140.215 301.322C139.359 301.64 138.559 301.544 137.666 301.534C135.286 301.51 133.062 302.624 130.695 302.516C130.096 302.489 129.643 302.315 129.135 302.109C129.015 302.061 129.043 301.543 128.85 301.5C127.692 301.24 127.991 301.95 127.256 302.307C126.441 302.703 125.234 302.062 125.698 303.281C123.486 303.184 121.39 303.93 119.377 302.618C120.329 304.721 117.005 302.974 116.136 302.94C114.692 302.882 113.428 303.603 111.988 303.77C110.261 303.969 108.526 303.168 106.836 303.657C105.512 304.039 105.059 304.96 103.681 304.489C102.511 304.09 101.779 303.221 101.211 302.271C100.428 300.961 100.327 300.376 98.4371 300.353C97.0356 300.336 95.6267 300.637 94.2117 300.634C92.5903 300.631 90.8086 300.459 89.3285 301.23C87.7341 302.06 86.7975 303.324 85.0292 303.974C77.0776 306.898 68.3487 306.124 60.0522 306.075C56.5519 306.054 53.9832 306.375 53.0005 302.383C52.1703 299.009 51.8375 295.482 51.0454 292.08C50.0748 287.913 49.008 284.047 46.8544 280.321C44.7655 276.708 43.008 272.975 41.189 269.222C37.4061 261.416 32.1404 254.775 26.2694 248.432C24.0391 246.021 21.4829 243.336 21.3791 239.866C21.303 236.869 22.6232 233.764 24.3547 231.377C25.9008 229.246 28.4481 226.842 31.3297 227.339C33.065 227.639 34.2024 229.038 35.4975 230.088C36.9129 231.236 38.4548 232.018 40.1608 232.643C44.1389 234.102 47.4749 235.699 50.9199 238.218C54.4057 240.766 57.6643 243.62 60.6788 246.711C66.4656 252.645 72.3952 258.809 75.7202 266.493C77.0306 269.52 77.8678 272.439 78.7612 275.578C79.6389 278.659 82.0282 277.81 84.715 277.367C87.9893 276.827 91.2799 276.537 94.5761 276.195C95.8168 276.067 97.566 276.028 98.313 274.856C99.1367 273.563 98.1931 271.889 98.1183 270.547C98.0783 269.831 98.3158 269.303 98.3753 268.604C98.4436 267.81 98.2089 267.084 98.208 266.293C98.207 264.592 99.0033 263.077 100.327 262.046C102.803 260.117 106.415 258.967 109.347 257.906C113.349 256.456 117.638 255.744 121.761 254.71C126.402 253.545 131.071 252.495 135.738 251.437C140.323 250.398 144.902 249.329 149.536 248.528C152.254 248.059 155.203 248.23 157.839 247.372C160.639 246.46 160.175 243.642 160.167 241.146C160.153 237.022 160.663 232.778 161.267 228.701C162.552 220.036 165.613 211.555 168.395 203.274C171.075 195.298 174.395 187.643 179.877 181.171C185.213 174.87 191.762 169.167 198.556 164.485C205.634 159.606 213.511 156.081 220.9 151.725C219.285 150.49 217.359 149.437 216.431 147.534C215.383 145.387 215.827 142.82 215.872 140.525C215.922 137.935 216.001 135.661 216.926 133.194C217.433 131.843 219.389 129.28 219.09 127.81C218.587 125.343 213.189 123.541 211.202 122.525C208.084 120.933 204.961 119.315 202.088 117.305C199.331 115.376 196.738 113.055 195.067 110.094C194.594 109.254 194.204 108.372 193.901 107.456C193.564 106.434 193.8 106.086 192.779 106.011C191.148 105.891 188.704 107.528 187.331 108.251C180.249 111.977 172.471 116.992 164.115 116.66C161.083 116.539 157.675 115.587 156.603 112.425C155.192 108.262 158.138 103.962 160.724 100.955C155.681 101.748 146.381 104.225 142.402 99.7253C139.75 96.727 141.75 91.968 143.974 89.3681C146.912 85.9338 151.101 83.843 154.97 81.6577C150.222 79.8476 144.966 78.6902 140.791 75.6612C136.797 72.7648 137.291 68.3149 140.445 64.8983C143.817 61.246 149.713 59.3754 154.35 58.0195C160.038 56.3563 165.689 56.4897 171.55 56.6013C182.07 56.8011 191.106 60.6789 199.734 66.5415C204.296 69.6415 208.792 72.987 212.838 76.7415C216.633 80.2627 220.681 83.5371 224.42 87.0964C228.043 90.5451 230.893 94.8179 234.717 98.0398C237.969 100.779 241.534 104.662 245.664 105.878C250.045 107.167 253.987 109.3 258.405 110.57C263.416 112.009 267.72 114.417 272.364 116.713C291.853 126.352 312.774 132.626 333.32 139.546C343.829 143.085 354.408 145.58 365.137 148.283C370.525 149.64 375.528 150.364 381.088 150.119C382.37 150.063 383.595 150.029 384.859 150.207C385.786 150.337 386.491 150.688 387.319 150.134C388.51 149.338 388.958 147.267 389.668 146.087C385.711 144.861 381.837 143.534 380.032 139.479C378.895 136.923 378.304 133.943 377.805 131.202C377.538 129.726 377.532 128.237 377.303 126.761C377.177 125.946 376.79 125.094 376.82 124.261C376.731 124.724 373.782 123.2 373.355 122.917C371.705 121.824 371.405 119.621 371.418 117.762C371.434 115.662 372.068 113.353 373.494 111.761C374.169 111.007 374.972 110.441 375.954 110.157C376.65 109.956 377.568 110.22 378.182 110.016C380.906 109.116 381.211 102.375 381.598 99.9214C382.449 94.5144 383.298 89.3523 385.136 84.1693C388.487 74.7199 392.799 65.5365 397.936 56.9332C402.338 49.5612 406.735 40.547 416.413 40.4419H416.711ZM333.05 267.434C329.133 268.113 325.38 269.498 321.596 270.673C318.062 271.77 314.481 272.468 310.855 273.181C303.641 274.601 296.267 275.9 289.157 277.751C287.155 278.272 286.102 279.448 284.355 280.266C283.06 280.872 281.844 280.258 280.497 280.206C277.564 280.094 274.31 281.051 271.49 281.764C264.831 283.446 258.923 286.368 252.897 289.598C252.358 289.887 248.712 291.555 248.885 292.246C249.025 292.81 253.66 291.296 254.397 291.184C258.129 290.615 261.774 289.439 265.478 288.708C268.519 288.108 271.594 287.702 274.621 287.035C277.99 286.295 285.168 283.717 285.453 289.282C285.761 295.296 279.12 297.146 275.128 299.951C275.573 300.719 281.977 298.188 282.771 297.932C285.495 297.054 288.021 295.471 290.794 294.797C295.618 293.625 295.034 298.953 292.371 301.323C289.412 303.956 284.518 304.752 282.879 308.804C285.031 309.58 287.844 308.122 289.821 307.397C292.416 306.446 295.022 305.509 297.633 304.601C303.496 302.565 309.063 299.758 314.957 297.818C327.048 293.837 339.829 292.695 352.469 291.987C351.343 287.618 350.111 283.275 349.099 278.877C348.666 276.995 348.269 275.104 347.941 273.2C347.713 271.876 347.907 268.709 346.995 267.664C345.885 266.393 342.992 268.179 341.418 268.145C339.877 268.112 338.752 267.316 337.327 267.065C335.974 266.827 334.373 267.205 333.05 267.434ZM105.855 292.725C105.855 294.813 105.493 297.347 108.24 297.591C110.462 297.788 114.809 298.042 116.581 296.462C114.883 295.634 112.952 295.49 111.148 295.012C109.268 294.514 107.533 293.697 105.855 292.725ZM151.199 254.67C150.363 254.676 148.953 255.605 148.191 255.864C146.796 256.339 145.378 256.739 143.954 257.116C139.674 258.249 134.165 258.426 132.2 263.019C131.219 265.312 130.539 271.208 127.131 271.186C124.101 271.167 122.287 266.794 120.126 265.238C117.892 263.631 114.351 264.725 111.942 265.423C109.494 266.132 105.696 267.042 105.97 270.144C106.168 272.375 106.571 274.405 106.551 276.683C106.528 279.583 106.283 282.477 106.283 285.377C108.001 283.023 109.5 278.289 112.545 277.343C115.621 276.386 117.361 281.76 118.161 283.82C119.152 286.372 120.399 289.266 120.474 292.032C120.498 292.9 119.971 295.286 120.575 296C121.111 296.634 123.172 296.174 123.839 296.105C127.961 295.676 132.062 295.141 136.198 294.783C138.322 294.6 138.9 294.134 138.692 291.849C138.529 290.055 138.478 288.344 138.703 286.543C139.707 278.501 144.66 271.144 153.034 269.748C158.079 268.906 163.972 269.522 169.01 270.33C170.951 270.641 173.059 271.582 175.032 271.5C176.49 271.44 176.02 271.357 176.318 269.985C176.527 269.026 176.974 268.208 177.703 267.543C178.28 267.018 179.011 267.314 179.555 266.628C179.948 266.131 179.889 265.454 180.074 264.881C180.437 263.767 181.091 262.263 182.394 261.982C184.491 261.529 186.72 264.337 187.778 265.785C188.872 267.282 189.202 271.752 190.961 272.337C192.99 273.012 195.404 270.352 195.827 268.677C196.396 266.423 195.679 263.985 195.336 261.754C195.312 261.594 195.212 260.111 195.102 260.014C194.806 259.753 192.575 259.826 192.18 259.807C190.236 259.714 188.29 259.71 186.344 259.705C178.718 259.685 171.247 258.936 163.671 258.136C164.771 259.93 166.655 262.875 164.721 264.769C163.288 266.172 160.702 265.468 158.902 265.757C156.359 266.165 152.073 268.578 149.649 266.814C146.235 264.327 150.098 260.055 151.366 257.704C151.637 257.2 152.644 255.427 152.217 254.837C151.848 254.325 151.74 254.666 151.199 254.67ZM94.327 282.309C92.5834 282.841 90.8267 283.352 89.0454 283.746C86.956 284.209 83.716 283.76 82.6994 286.058C81.9259 287.806 82.3098 290.626 82.9383 292.367C83.6579 294.36 85.3467 294.873 87.3399 295.025C89.666 295.203 92.0228 294.828 94.3214 294.51C95.2274 294.384 96.1933 294.158 97.1137 294.156C97.6599 294.155 98.7625 294.655 99.2483 294.246C99.8772 293.717 99.4631 290.709 99.4138 289.988C99.2915 288.203 98.9527 286.441 98.8601 284.653C98.7941 283.368 99.2785 281.623 97.7729 281.349C96.8353 281.178 95.1419 282.061 94.327 282.309ZM235.129 246.964C233.826 247.189 232.53 247.35 231.207 247.33C230.391 247.318 229.415 247.041 228.662 247.488C227.27 248.314 227.477 250.49 227.525 251.848C227.583 253.495 227.727 255.167 227.903 256.806C228.07 258.374 228.93 260.955 227.716 262.298C226.859 261.36 226.437 258.295 224.783 258.407C222.965 258.529 223.806 261.435 223.967 262.475C224.858 268.226 225.874 273.979 226.67 279.747C227.048 282.488 227.537 285.21 227.791 287.965C227.96 289.814 228.017 291.479 230.084 291.862C231.999 292.218 234.152 291.611 236.088 291.565C238.081 291.517 239.223 291.382 240.369 289.58C237.623 288.979 233.274 289.347 231.727 286.442C229.923 283.054 233.728 280.006 235.6 277.69C237.036 275.911 239.974 269.998 242.641 273.51C243.602 274.775 243.775 276.704 244.26 278.175C245.049 280.565 246.012 282.92 246.958 285.251C255.608 280.786 264.484 276.76 273.918 274.253C271.513 270.188 268.536 266.527 266.736 262.121C264.718 257.183 263.047 252.11 260.985 247.188C257.714 249.097 254.218 244.47 250.962 244.283C245.818 243.989 240.172 246.09 235.129 246.964ZM183.888 280.254C182.095 281.323 179.457 283.4 179.026 285.548C178.282 289.26 182.519 286.778 183.828 285.965C186.566 284.265 189.249 283.721 192.394 284.769C196.427 286.113 200.143 288.382 204.472 286.659C206.625 285.8 211.403 283.967 210.114 280.677C209.225 278.41 206.624 280.355 205.249 281.168C201.651 283.296 198.67 281.948 195.074 280.411C191.478 278.875 187.428 278.146 183.888 280.254ZM56.1698 261.201C54.7302 263.242 57.6569 262.801 58.9417 263C61.6285 263.415 64.3957 265.558 63.6552 268.59C62.9333 271.546 60.1047 273.393 59.566 276.496C59.103 279.161 59.5492 282.533 62.1222 283.996C63.5674 284.817 66.726 285.156 68.1805 284.212C70.4015 282.771 67.6431 280.625 66.1737 279.912C64.2265 278.966 62.6539 278.454 63.6176 275.968C64.7922 272.939 67.0737 270.614 66.871 267.148C66.7036 264.276 65.1878 261.013 62.4262 259.819C60.4487 258.965 57.5183 259.289 56.1698 261.201ZM252.737 252.398C255.226 252.291 255.325 255.299 255.199 256.778C255.028 258.8 255.395 260.956 255.437 262.985C255.493 265.672 256.056 274.473 251.304 273.165C248.248 272.325 245.734 269.397 243.277 267.515C241.017 265.783 235.271 263.705 234.899 260.422C234.479 256.713 239.009 256.019 241.605 255.429C245.311 254.588 248.908 252.562 252.737 252.398ZM240.613 154.646C236.666 155.026 232.742 155.613 228.986 156.923C226.444 157.81 222.541 158.446 220.74 160.623C219.183 162.505 219.858 165.188 219.351 167.412C218.667 170.42 216.59 170.009 214.576 168.13C212.165 165.881 211.468 164.253 208.112 166.363C201.165 170.732 195.657 177.182 190.146 183.157C194.407 184.447 202.767 184.76 204.182 190.083C204.956 192.994 202.624 195.112 200.528 196.7C197.822 198.751 194.998 200.648 192.351 202.782C189.881 204.773 184.343 212.7 182.777 205.731C181.806 201.416 183.624 196.958 182.853 192.696C179.502 198.099 176.1 203.488 173.028 209.056C170.413 213.796 168.893 218.866 167.638 224.107C169.594 224.235 171.629 223.242 173.561 223.828C175.423 224.393 176.294 226.153 176.424 227.978C176.647 231.07 175.219 234.218 174.5 237.188C174.007 239.228 173.441 243.857 170.956 244.521C168.124 245.277 166.347 240.921 165.085 239.151C163.883 240.999 163.902 243.702 163.727 245.82C163.606 247.276 162.794 249.999 164.432 250.804C165.965 251.558 169.198 250.614 170.837 250.544C173.879 250.415 176.98 250.169 180.023 250.258C182.898 250.343 187.128 251.88 188.251 248.347C189.016 245.941 189.689 237.296 193.768 241.987C195.58 244.069 196.997 246.444 198.747 248.566C200.512 250.707 202.117 250.847 204.754 250.739C209.973 250.525 215.07 251.527 220.176 252.337C224.658 253.047 224.07 249.243 224.003 245.857C223.901 240.609 224.942 235.12 225.51 229.901C226.86 217.489 229.63 205.226 233.892 193.488C230.327 192.273 223.935 197.172 221.299 193.452C219.132 190.394 221.916 186.181 223.049 183.322C224.463 179.755 225.178 176.029 227.483 172.868C228.211 171.87 229.246 170.533 230.655 170.869C231.863 171.157 232.345 172.699 233.025 173.568C235.183 176.329 237.941 178.399 239.86 181.409C241.034 183.251 241.947 185.219 242.328 187.382C242.433 187.976 242.3 189.194 242.718 189.693C244.016 191.238 248.103 191.215 249.92 192.163C256.121 195.4 258.301 204.821 260.709 210.762C261.388 212.435 262.061 214.112 262.421 215.886C262.662 217.071 262.651 218.578 263.294 219.641C264.697 221.962 269.057 219.889 271.197 219.53C274.783 218.927 278.352 218.353 281.952 217.847C284.149 217.539 287.347 216.743 289.021 218.689C290.756 220.707 289.758 223.885 288.887 226.05C287.465 229.583 285.648 232.959 284.148 236.46C282.951 239.253 282.355 242.851 280.055 245.002C278.063 246.867 274.765 247.402 272.42 245.884C271.081 245.018 267.644 236.641 266.737 237.015C268.374 243.486 270.775 250.084 273.311 256.259C274.09 258.156 275.427 262.024 277.395 263.053C279.026 263.906 282.727 262.294 284.396 261.982C285.978 261.685 289.102 260.4 290.615 261.342C292.449 262.483 292.672 265.528 292.878 267.418C293.031 268.82 292.753 269.866 294.458 269.796C295.66 269.747 296.872 269.161 298.025 268.867C300.701 268.184 303.478 267.732 306.203 267.292C312.504 266.275 318.802 265.26 325.101 264.217C330.515 263.32 335.859 263.325 340.751 260.757C343.231 259.455 346.074 259.058 348.715 258.187C351.334 257.324 353.945 256.764 356.686 256.439C362.677 255.731 368.507 255.037 374.428 253.823C377.669 253.159 380.903 252.463 384.126 251.719C386.995 251.057 389.769 250.004 392.624 249.355C395 248.815 396.951 249.22 397.968 246.524C398.698 244.591 398.528 242.424 398.716 240.401C399.572 231.156 396.335 221.858 395.672 212.663C395.457 209.685 395.391 206.698 395.168 203.723C395.066 202.36 395.127 198.39 393.537 197.655C393.392 198.745 393.505 200.58 392.266 201.12C392.871 200.856 392.077 204.077 392.034 204.401C391.865 205.686 392.287 207.062 392.064 208.324C392.241 208.768 392.164 209.102 391.833 209.327C391.609 209.509 391.444 209.74 391.342 210.018C391.326 210.918 391.59 210.388 391.602 210.698C391.727 213.792 391.204 217 391.428 220.169C391.664 223.519 392.412 226.806 392.98 230.11C393.49 233.075 394.04 236.047 394.465 239.026C394.763 241.117 394.985 243.517 393.86 245.42C391.724 249.034 385.54 248.641 381.938 249.232C375.952 250.214 369.958 251.101 363.949 251.936C361.643 252.256 359.308 252.988 356.975 253.024C354.482 253.063 353.148 252.056 351.576 250.217C348.41 246.51 346.368 242.301 343.73 238.269C342.249 236.004 341.016 235.408 338.522 234.716C336.206 234.074 334.347 232.384 332.463 230.979C328.504 228.026 323.392 224.815 320.795 220.467C318.061 215.891 321.913 214.372 325.602 213.123C324.704 210.737 322.944 208.821 321.493 206.769C319.845 204.436 318.35 202.012 316.574 199.766C312.956 195.189 309.342 190.635 305.83 185.972C302.829 181.987 299.795 178.212 295.965 174.984C292.117 171.741 287.834 169.084 283.609 166.369C281.402 164.951 277.527 161.327 274.737 161.698C272.032 162.058 270.962 167.097 270.286 169.216C269.51 171.646 269.236 175.036 267.429 176.949C264.773 179.762 262.015 175.332 260.747 173.29C258.426 169.55 256.051 165.844 253.733 162.101C252.677 160.395 251.151 158.771 250.524 156.836C250.517 156.813 250.223 155.15 250.52 155.382L250.54 155.401L250.52 155.379C249.857 154.722 247.408 154.586 246.493 154.506L246.409 154.499C244.483 154.317 242.534 154.46 240.613 154.646ZM214.742 259.507C212.523 259.494 210.311 259.752 208.103 259.933C206.163 260.091 204.385 259.795 202.448 259.678C200.052 259.534 198.868 259.785 199.419 262.259C199.82 264.06 200.303 266.458 202.151 267.219C204.648 268.247 208.012 268.108 210.673 268.498C212.626 268.784 214.574 269.042 216.519 269.368C217.811 269.584 218.474 269.811 219.079 268.347C219.585 267.12 219.259 265.481 219.086 264.214C218.953 263.242 219.033 261.531 218.574 260.666C217.888 259.375 216.092 259.516 214.742 259.507ZM318.177 234.834C321.436 237.814 323.63 241.623 326.091 245.236C327.594 247.441 330.534 250.958 328.4 253.632C326.58 255.912 322.351 255.39 319.806 255.5C315.807 255.672 312.541 257.479 308.736 258.411C299.152 260.759 307.112 244.65 308.44 241.288C309.371 238.93 310.332 236.581 311.459 234.308C311.967 233.283 312.981 230.294 314.244 229.903C316.076 229.335 317.017 233.774 318.177 234.834ZM235.834 200.964C234.311 203.876 234.063 207.906 233.341 211.086C231.133 220.81 229.842 230.713 228.828 240.623C233.875 238.621 239.203 238.483 244.533 237.993C248.395 237.637 251.941 237.231 255.803 237.396C256.461 237.424 258.355 237.758 258.897 237.198C259.625 236.447 258.743 234.351 258.528 233.561C257.357 229.269 256.843 224.834 255.512 220.568C254.156 216.218 252.507 211.874 250.753 207.669C249.47 204.593 247.708 201.593 244.598 200.085C241.876 198.765 237.524 197.734 235.834 200.964ZM215.046 219.889C217.125 223.024 219.76 225.767 221.791 228.931C223.231 231.176 224.917 235.328 221.458 236.755C220.244 237.256 218.81 237.039 217.538 237.062C215.57 237.095 213.622 237.265 211.651 237.218C209.787 237.173 207.94 236.947 206.081 236.85C204.909 236.789 203.437 236.879 202.405 236.206C199.637 234.401 201.638 230.715 202.53 228.357C203.476 225.852 204.754 223.483 205.987 221.109C206.842 219.463 208.12 216.108 210.065 215.437C212.368 214.642 214.086 218.443 215.046 219.889ZM315.893 184.364C320.464 189.679 324.433 195.477 328.17 201.398C329.994 204.287 331.765 207.211 333.533 210.135C334.69 212.048 335.559 214.495 336.968 216.228C340.184 220.181 341.078 211.556 341.552 209.682C343.3 202.769 345.465 195.912 347.391 189.043H345.417C337.549 189.038 330.006 188.922 322.346 186.604C320.178 185.948 318.201 184.524 315.893 184.364ZM299.275 185.704C301.764 187.542 317.695 198.334 310.993 202.498C309.607 203.359 307.341 202.968 305.774 203.092C303.766 203.251 301.726 203.445 299.742 203.801C297.174 204.262 294.678 205.065 292.098 205.473C290.047 205.797 287.328 206.174 285.495 204.897C282.472 202.79 284.307 198.651 285.305 195.971C286.724 192.164 288.068 187.068 291.589 184.8C292.408 184.272 293.411 182.388 294.293 182.216C295.673 181.945 298.266 184.959 299.275 185.704ZM387.166 96.1897C385.965 97.1087 385.91 99.0173 385.599 100.364C384.551 104.896 383.088 109.307 382.221 113.886C381.375 118.353 381.109 122.75 381.524 127.277C381.801 130.296 381.833 134.011 383.668 136.582C385.864 139.659 390.214 139.501 393.503 140.412C396.667 141.289 399.805 144.004 396.353 146.826C395.126 147.829 393.516 147.992 392.303 148.958C390.807 150.151 389.948 152.287 389.313 154.034C388.789 155.472 388.805 155.747 390.368 156.255C391.082 156.487 391.803 156.634 392.554 156.572C394.265 156.43 395.791 155.3 397.223 154.451C400.876 152.287 405.095 149.397 409.456 149.07C410.85 148.966 412.435 149.536 413.79 149.083C415.053 148.661 414.666 148.402 414.885 147.228C415.754 142.572 416.107 138.002 418.481 133.79C419.653 131.712 422.75 127.46 424.827 130.696C425.694 132.047 426.007 132.707 427.931 132.293C429.496 131.956 431.216 130.718 430.905 128.91C430.613 127.205 428.37 126.043 427.011 125.296C425.2 124.301 423.931 124.416 421.959 124.18C416.542 123.533 420.34 115.61 421.121 112.638C421.612 110.77 422.186 108.355 420.897 106.668C418.936 104.102 414.664 104.945 411.972 105.309C408.25 105.813 404.187 106.081 400.704 104.392C397.018 102.605 395.448 98.5748 391.992 96.6155C390.715 95.8913 388.478 95.1847 387.166 96.1897ZM403.339 128.918C405.9 128.884 404.656 132.535 403.954 133.763C402.477 136.352 399.313 137.353 396.534 136.398C394.337 135.643 391.959 132.306 395.402 131.753C397.052 131.488 398.686 131.596 400.25 130.811C401.142 130.364 402.293 128.932 403.339 128.918ZM396.915 109.501C398.506 110.467 395.791 116.637 395.333 117.885C394.589 119.923 393.926 121.239 395.82 122.809C397.138 123.902 399.736 124.845 398.496 127.021C397.348 129.036 393.408 128.191 391.806 127.205C389.478 125.772 390.164 123.027 390.677 120.775C391.013 119.299 394.082 107.781 396.915 109.501ZM146.365 68.994C151.272 71.09 156.289 72.9833 161.481 74.2463C166.018 75.3503 170.48 76.5407 175.156 76.2813C179.483 76.042 179.999 80.292 177.528 83.2354C176.185 84.8345 174.627 84.7945 172.671 84.8563C170.381 84.9288 168.3 85.5643 166.091 86.1332C162.727 86.9997 159.321 87.7356 156.062 88.9586C154.379 89.5898 152.719 90.3322 151.219 91.3297C150.276 91.9573 148.171 93.0878 149.284 93.9645C150.893 95.2312 155.67 93.4959 157.585 93.3816C162.045 93.1157 166.495 92.7131 170.929 92.1548C173.101 91.881 175.432 91.6105 177.489 90.8217C178.835 90.3057 180.325 89.0246 181.849 89.35C185.064 90.0365 183.471 94.856 182.011 96.424C179.843 98.7524 176.553 99.7806 173.753 101.104C171.796 102.029 169.851 103.008 167.951 104.043C167.053 104.532 162.87 106.364 163.002 107.755C163.141 109.217 166.443 108.48 167.26 108.347C172.711 107.46 177.629 105.353 182.665 103.196C184.87 102.252 187.105 101.346 189.263 100.299C190.771 99.5672 192.253 98.4525 193.918 98.1202C197.845 97.336 197.673 101.722 199.219 104.091C203.815 111.133 212.694 114.136 219.602 118.206C222.216 119.745 224.709 121.517 227.107 123.371C228.82 124.695 229.504 126.517 231.417 124.772C233.011 123.316 233.78 121.182 234.802 119.331C235.991 117.176 237.58 115.273 238.799 113.136C240.601 109.978 241.141 106.966 237.184 105.804C233.03 104.584 229.743 102.765 226.212 100.17C217.548 93.8008 210.359 85.6675 201.72 79.2494C193.716 73.3031 185.229 67.7231 175.195 66.1264C165.686 64.6124 155.252 64.9852 146.365 68.994ZM405.94 114.731C405.737 116.485 405.305 120.224 402.869 120.364C399.911 120.534 401.897 111.547 403.573 110.536C406.256 108.916 406.112 113.246 405.94 114.731ZM378.413 114.016C374.72 114.321 373.668 118.366 377.359 119.798L378.413 114.016ZM392.105 110.466C391.631 112.302 391.8 115.247 390.327 116.656C388.25 118.642 387.346 115.728 387.362 114.067C387.377 112.423 388.191 108.313 390.39 108.097C392.269 107.912 390.705 110.09 392.105 110.466ZM431.957 69.6252C430.607 72.4343 432.058 75.2066 432.866 77.9678C431.209 78.5019 428.976 78.098 427.964 79.8495C427.326 80.9535 427.437 82.6158 427.628 83.8114C427.785 84.7922 428.589 86.1128 427.92 87.023C427.044 88.2144 424.869 87.6635 423.902 88.9888C422.433 91.0043 423.257 95.6082 425.319 97.1254C428.215 99.2567 426.487 94.0263 426.31 93.0738C425.865 90.6878 428.337 91.0123 430.026 90.0486C430.931 89.5317 431.093 89.4318 431.301 88.3282C431.493 87.3116 431.391 86.5051 431.149 85.4095C430.327 81.6921 431.764 82.2992 434.717 81.4802C437.265 80.7731 437.06 78.7376 436.413 76.5979C435.906 74.9207 434.393 72.1693 436.032 70.7395C436.682 70.1719 437.67 70.5308 437.81 69.3463C437.905 68.5468 436.832 67.236 436.269 66.7762C434.327 65.1911 432.746 67.9825 431.957 69.6252Z" fill="black"/>
</svg>
